<?xml version="1.0" encoding="UTF-8" standalone="no"?>
<svg
   version="1.2"
   viewBox="0 0 153.56322 120.95651"
   width="153.56322"
   height="120.95651"
   id="svg1"
   sodipodi:docname="Logo_alt.svg"
   inkscape:export-filename="Logo_alt.png"
   inkscape:export-xdpi="96"
   inkscape:export-ydpi="96"
   xmlns:inkscape="http://www.inkscape.org/namespaces/inkscape"
   xmlns:sodipodi="http://sodipodi.sourceforge.net/DTD/sodipodi-0.dtd"
   xmlns:xlink="http://www.w3.org/1999/xlink"
   xmlns="http://www.w3.org/2000/svg"
   xmlns:svg="http://www.w3.org/2000/svg"
   xmlns:rdf="http://www.w3.org/1999/02/22-rdf-syntax-ns#"
   xmlns:cc="http://creativecommons.org/ns#"
   xmlns:dc="http://purl.org/dc/elements/1.1/">
  <sodipodi:namedview
     id="namedview1"
     pagecolor="#ffffff"
     bordercolor="#000000"
     borderopacity="0.25"
     inkscape:showpageshadow="2"
     inkscape:pageopacity="0.0"
     inkscape:pagecheckerboard="0"
     inkscape:deskcolor="#d1d1d1" />
  <title
     id="title1">Logo</title>
  <defs
     id="defs1">
    <linearGradient
       id="swatch2">
      <stop
         style="stop-color:#000000;stop-opacity:1;"
         offset="0"
         id="stop2" />
    </linearGradient>
    <linearGradient
       xlink:href="#swatch2"
       id="linearGradient2"
       x1="343.51239"
       y1="281.23294"
       x2="362.19623"
       y2="281.23294"
       gradientUnits="userSpaceOnUse" />
    <linearGradient
       xlink:href="#swatch2"
       id="linearGradient1"
       x1="352.66672"
       y1="247.86253"
       x2="419.00958"
       y2="247.86253"
       gradientUnits="userSpaceOnUse" />
  </defs>
  <style
     id="style1" />
  <metadata
     id="metadata1">
    <rdf:RDF>
      <cc:Work
         rdf:about="">
        <dc:title>Logo</dc:title>
      </cc:Work>
    </rdf:RDF>
  </metadata>
  <g
     id="g3"
     transform="matrix(1.0012147,0,0,1.0012147,-278.74802,-208.02787)">
    <path
       style="fill:#000000"
       d="m 278.40984,232.20821 v 66.30235 c 0,0 0.30002,31.80112 35.40126,30.00106 0,0 2.86584,-0.37962 2.1268,-1.48818 -0.73903,-1.10855 -15.33499,-6.00466 -18.56828,-29.00716 v -57.73719 c 0,0 -1.10855,-9.51509 9.0532,-12.19409 h 21.1549 c 0,0 8.70447,-1.2086 9.97786,-10.12236 0,0 0.31835,-8.06483 -8.70152,-10.18715 h -29.71254 c 0,0 -17.26886,1.85597 -20.73168,24.43272 z"
       id="path5-2" />
    <path
       style="fill:#000000"
       d="m 431.68064,234.94123 v 67.59601 c 0,0 -1.06116,23.02721 -25.89235,25.36177 h -22.70886 c 0,0 -9.55046,-0.53058 -10.39939,-10.5055 0,0 -0.53058,-8.70153 8.91376,-10.5055 h 21.43547 c 0,0 10.29327,0.74281 10.5055,-12.52171 v -53.27033 c 0,0 9.44434,-8.70153 11.46055,-17.82752 0,0 1.48563,-3.18348 3.71407,-0.21223 2.22843,2.97125 3.07736,9.8688 3.07736,9.8688 z"
       id="path4-8" />
    <path
       style="fill:#000000;fill-opacity:0.0075075;stroke:url(#linearGradient2);stroke-width:1.99857;stroke-dasharray:none"
       d="m 349.29013,271.77849 12.9061,12.75603 c 0,0 -5.17745,4.72723 -9.67957,6.1529 0,0 -1.87589,-6.75319 -9.00426,-9.75461 0,0 1.12553,-4.12695 5.77773,-9.15432 z"
       id="path3-1" />
    <path
       id="path2-1"
       style="fill:#000000"
       d="m 337.55458,283.23938 c -2.27661,-0.054 -3.94654,0.31943 -3.94654,0.31943 -10.50496,3.60171 -11.25552,14.25673 -11.25552,14.25673 -0.67531,6.90326 -1.80112,9.75491 -1.80112,9.75491 -2.5512,8.10382 -9.00362,8.92899 -9.00362,8.92899 3.15148,4.72722 13.73131,2.55142 13.73131,2.55142 6.67816,-0.90042 17.1833,-9.2295 17.1833,-9.2295 7.05334,-4.95234 7.57765,-11.48041 7.57765,-11.48041 0.46428,-12.79353 -7.4769,-14.98267 -12.48546,-15.10157 z m -0.63586,2.56934 a 10.611619,10.611619 0 0 1 10.61169,10.61169 10.611619,10.611619 0 0 1 -10.61169,10.6117 10.611619,10.611619 0 0 1 -10.61169,-10.6117 10.611619,10.611619 0 0 1 10.61169,-10.61169 z" />
    <path
       style="fill:#ffffff;fill-opacity:0;stroke:url(#linearGradient1);stroke-width:1.99857;stroke-dasharray:none"
       d="m 352.66673,267.65153 c 0,0 57.77731,-56.42667 66.18128,-52.74993 0,0 5.82896,4.54667 -52.53494,66.09406 z"
       id="path1-3" />
  </g>
</svg>
