<?xml version="1.0" encoding="iso-8859-1"?>
<!-- Generator: Adobe Illustrator 19.0.0, SVG Export Plug-In . SVG Version: 6.00 Build 0)  -->
<svg version="1.1" id="Layer_1" xmlns="http://www.w3.org/2000/svg" xmlns:xlink="http://www.w3.org/1999/xlink" x="0px" y="0px"
	 viewBox="0 0 512 512" style="enable-background:new 0 0 512 512;" xml:space="preserve">
<g>
	<g>
		<path d="M211.273,221.901c-3.584-2.073-8.173-0.852-10.248,2.734c-1.948,3.366-5.569,5.457-9.451,5.457
			c-6.015,0-10.908-4.893-10.908-10.907s4.893-10.908,10.908-10.908c4.142,0,7.5-3.357,7.5-7.5s-3.358-7.5-7.5-7.5
			c-14.286,0-25.908,11.622-25.908,25.908c0,14.285,11.622,25.907,25.908,25.907c9.217,0,17.813-4.96,22.434-12.943
			C216.083,228.564,214.858,223.977,211.273,221.901z"/>
	</g>
</g>
<g>
	<g>
		<path d="M437.02,74.98C388.667,26.629,324.38,0,256,0S123.333,26.629,74.98,74.98C26.629,123.332,0,187.62,0,256
			s26.629,132.668,74.98,181.02C123.333,485.371,187.62,512,256,512s132.667-26.629,181.02-74.98
			C485.371,388.668,512,324.38,512,256S485.371,123.332,437.02,74.98z M15,256c0-64.374,25.068-124.894,70.587-170.413
			C131.106,40.068,191.626,15,256,15c61.867,0,120.167,23.165,165.02,65.374L160.856,340.537h-6.096
			c-6.014,0-10.907-4.893-10.907-10.907V182.37c0-6.015,4.893-10.907,10.907-10.907h147.259c4.142,0,7.5-3.357,7.5-7.5
			s-3.358-7.5-7.5-7.5h-147.26c-14.285,0-25.907,11.622-25.907,25.907v147.26c0,11.595,7.658,21.435,18.181,24.73l-66.659,66.659
			C38.165,376.166,15,317.867,15,256z M426.413,426.413C380.894,471.932,320.374,497,256,497
			c-61.867,0-120.167-23.165-165.02-65.374l249.538-249.538c0.002,0.094,0.018,0.187,0.018,0.282v27.611
			c0,2.411,1.159,4.675,3.115,6.084c1.956,1.41,4.47,1.792,6.757,1.031l43.108-14.369c0.685-0.229,1.212,0.001,1.536,0.234
			c0.322,0.232,0.707,0.661,0.707,1.381v103.313c0,0.721-0.385,1.149-0.708,1.382c-0.323,0.233-0.85,0.463-1.535,0.234
			l-37.979-12.66V256c0-4.143-3.358-7.5-7.5-7.5c-4.142,0-7.5,3.357-7.5,7.5v46.019v27.611c0,6.015-4.893,10.907-10.908,10.907
			H209.981c-4.142,0-7.5,3.357-7.5,7.5s3.358,7.5,7.5,7.5h119.648c14.286,0,25.908-11.622,25.908-25.907v-17.206l33.236,11.079
			c5.08,1.692,10.705,0.835,15.049-2.296c4.343-3.131,6.937-8.196,6.937-13.551V204.343c0-5.354-2.593-10.419-6.937-13.55
			c-4.344-3.131-9.971-3.988-15.049-2.296l-33.236,11.079V182.37c0-4.273-1.07-8.477-3.077-12.223l79.166-79.166
			C473.835,135.834,497,194.133,497,256C497,320.374,471.932,380.894,426.413,426.413z"/>
	</g>
</g>
<g>
</g>
<g>
</g>
<g>
</g>
<g>
</g>
<g>
</g>
<g>
</g>
<g>
</g>
<g>
</g>
<g>
</g>
<g>
</g>
<g>
</g>
<g>
</g>
<g>
</g>
<g>
</g>
<g>
</g>
</svg>
